G75*
%MOIN*%
%OFA0B0*%
%FSLAX24Y24*%
%IPPOS*%
%LPD*%
%AMOC8*
5,1,8,0,0,1.08239X$1,22.5*
%
%ADD10C,0.0060*%
%ADD11C,0.0080*%
%ADD12C,0.0050*%
%ADD13C,0.0100*%
D10*
X014200Y012000D02*
X016500Y012000D01*
X016500Y019000D01*
X015750Y019000D01*
X015748Y018961D01*
X015742Y018922D01*
X015733Y018884D01*
X015720Y018847D01*
X015703Y018811D01*
X015683Y018778D01*
X015659Y018746D01*
X015633Y018717D01*
X015604Y018691D01*
X015572Y018667D01*
X015539Y018647D01*
X015503Y018630D01*
X015466Y018617D01*
X015428Y018608D01*
X015389Y018602D01*
X015350Y018600D01*
X015311Y018602D01*
X015272Y018608D01*
X015234Y018617D01*
X015197Y018630D01*
X015161Y018647D01*
X015128Y018667D01*
X015096Y018691D01*
X015067Y018717D01*
X015041Y018746D01*
X015017Y018778D01*
X014997Y018811D01*
X014980Y018847D01*
X014967Y018884D01*
X014958Y018922D01*
X014952Y018961D01*
X014950Y019000D01*
X014200Y019000D01*
X014200Y012000D01*
X014350Y028500D02*
X014352Y028563D01*
X014358Y028625D01*
X014368Y028687D01*
X014381Y028749D01*
X014399Y028809D01*
X014420Y028868D01*
X014445Y028926D01*
X014474Y028982D01*
X014506Y029036D01*
X014541Y029088D01*
X014579Y029137D01*
X014621Y029185D01*
X014665Y029229D01*
X014713Y029271D01*
X014762Y029309D01*
X014814Y029344D01*
X014868Y029376D01*
X014924Y029405D01*
X014982Y029430D01*
X015041Y029451D01*
X015101Y029469D01*
X015163Y029482D01*
X015225Y029492D01*
X015287Y029498D01*
X015350Y029500D01*
X015413Y029498D01*
X015475Y029492D01*
X015537Y029482D01*
X015599Y029469D01*
X015659Y029451D01*
X015718Y029430D01*
X015776Y029405D01*
X015832Y029376D01*
X015886Y029344D01*
X015938Y029309D01*
X015987Y029271D01*
X016035Y029229D01*
X016079Y029185D01*
X016121Y029137D01*
X016159Y029088D01*
X016194Y029036D01*
X016226Y028982D01*
X016255Y028926D01*
X016280Y028868D01*
X016301Y028809D01*
X016319Y028749D01*
X016332Y028687D01*
X016342Y028625D01*
X016348Y028563D01*
X016350Y028500D01*
X016348Y028437D01*
X016342Y028375D01*
X016332Y028313D01*
X016319Y028251D01*
X016301Y028191D01*
X016280Y028132D01*
X016255Y028074D01*
X016226Y028018D01*
X016194Y027964D01*
X016159Y027912D01*
X016121Y027863D01*
X016079Y027815D01*
X016035Y027771D01*
X015987Y027729D01*
X015938Y027691D01*
X015886Y027656D01*
X015832Y027624D01*
X015776Y027595D01*
X015718Y027570D01*
X015659Y027549D01*
X015599Y027531D01*
X015537Y027518D01*
X015475Y027508D01*
X015413Y027502D01*
X015350Y027500D01*
X015287Y027502D01*
X015225Y027508D01*
X015163Y027518D01*
X015101Y027531D01*
X015041Y027549D01*
X014982Y027570D01*
X014924Y027595D01*
X014868Y027624D01*
X014814Y027656D01*
X014762Y027691D01*
X014713Y027729D01*
X014665Y027771D01*
X014621Y027815D01*
X014579Y027863D01*
X014541Y027912D01*
X014506Y027964D01*
X014474Y028018D01*
X014445Y028074D01*
X014420Y028132D01*
X014399Y028191D01*
X014381Y028251D01*
X014368Y028313D01*
X014358Y028375D01*
X014352Y028437D01*
X014350Y028500D01*
X016850Y030000D02*
X016852Y030044D01*
X016858Y030088D01*
X016868Y030131D01*
X016881Y030173D01*
X016898Y030214D01*
X016919Y030253D01*
X016943Y030290D01*
X016970Y030325D01*
X017000Y030357D01*
X017033Y030387D01*
X017069Y030413D01*
X017106Y030437D01*
X017146Y030456D01*
X017187Y030473D01*
X017230Y030485D01*
X017273Y030494D01*
X017317Y030499D01*
X017361Y030500D01*
X017405Y030497D01*
X017449Y030490D01*
X017492Y030479D01*
X017534Y030465D01*
X017574Y030447D01*
X017613Y030425D01*
X017649Y030401D01*
X017683Y030373D01*
X017715Y030342D01*
X017744Y030308D01*
X017770Y030272D01*
X017792Y030234D01*
X017811Y030194D01*
X017826Y030152D01*
X017838Y030110D01*
X017846Y030066D01*
X017850Y030022D01*
X017850Y029978D01*
X017846Y029934D01*
X017838Y029890D01*
X017826Y029848D01*
X017811Y029806D01*
X017792Y029766D01*
X017770Y029728D01*
X017744Y029692D01*
X017715Y029658D01*
X017683Y029627D01*
X017649Y029599D01*
X017613Y029575D01*
X017574Y029553D01*
X017534Y029535D01*
X017492Y029521D01*
X017449Y029510D01*
X017405Y029503D01*
X017361Y029500D01*
X017317Y029501D01*
X017273Y029506D01*
X017230Y029515D01*
X017187Y029527D01*
X017146Y029544D01*
X017106Y029563D01*
X017069Y029587D01*
X017033Y029613D01*
X017000Y029643D01*
X016970Y029675D01*
X016943Y029710D01*
X016919Y029747D01*
X016898Y029786D01*
X016881Y029827D01*
X016868Y029869D01*
X016858Y029912D01*
X016852Y029956D01*
X016850Y030000D01*
D11*
X019350Y028750D02*
X019350Y028250D01*
X019600Y028000D01*
X019350Y027750D01*
X019350Y027250D01*
X019600Y027000D01*
X020100Y027000D01*
X020350Y027250D01*
X020350Y027750D01*
X020100Y028000D01*
X020350Y028250D01*
X020350Y028750D01*
X020100Y029000D01*
X019600Y029000D01*
X019350Y028750D01*
X016850Y024750D02*
X016850Y019250D01*
X013850Y019250D01*
X013850Y024750D01*
X016850Y024750D01*
X020850Y019300D02*
X022850Y019300D01*
X022850Y019000D01*
X022950Y019000D01*
X022850Y019000D02*
X022850Y018700D01*
X020850Y018700D01*
X020850Y019000D01*
X020750Y019000D01*
X020850Y019000D02*
X020850Y019300D01*
X022350Y019750D02*
X022350Y020250D01*
X018600Y012500D02*
X018100Y012500D01*
X012650Y016000D02*
X012350Y016000D01*
X012350Y015900D01*
X012350Y016000D02*
X012050Y016000D01*
X012050Y018000D01*
X012350Y018000D01*
X012350Y018100D01*
X012350Y018000D02*
X012650Y018000D01*
X012650Y016000D01*
X010600Y014500D02*
X010100Y014500D01*
X004350Y016250D02*
X004350Y016750D01*
X002350Y018750D02*
X002350Y019250D01*
D12*
X005011Y007083D02*
X005013Y007156D01*
X005019Y007229D01*
X005029Y007301D01*
X005043Y007373D01*
X005061Y007444D01*
X005082Y007514D01*
X005108Y007583D01*
X005137Y007650D01*
X005170Y007715D01*
X005206Y007779D01*
X005246Y007840D01*
X005289Y007899D01*
X005335Y007956D01*
X005384Y008010D01*
X005436Y008062D01*
X005491Y008110D01*
X005548Y008155D01*
X005608Y008198D01*
X005670Y008236D01*
X005734Y008272D01*
X005800Y008304D01*
X005867Y008332D01*
X005936Y008356D01*
X006006Y008377D01*
X006078Y008394D01*
X006150Y008407D01*
X006222Y008416D01*
X006295Y008421D01*
X006368Y008422D01*
X006441Y008419D01*
X006514Y008412D01*
X006587Y008401D01*
X006658Y008386D01*
X006729Y008367D01*
X006798Y008345D01*
X006867Y008318D01*
X006933Y008288D01*
X006998Y008255D01*
X007061Y008217D01*
X007122Y008177D01*
X007181Y008133D01*
X007237Y008086D01*
X007290Y008036D01*
X007341Y007983D01*
X007389Y007928D01*
X007433Y007870D01*
X007475Y007810D01*
X007513Y007747D01*
X007547Y007683D01*
X007578Y007616D01*
X007605Y007549D01*
X007629Y007479D01*
X007649Y007409D01*
X007665Y007337D01*
X007677Y007265D01*
X007685Y007193D01*
X007689Y007120D01*
X007689Y007046D01*
X007685Y006973D01*
X007677Y006901D01*
X007665Y006829D01*
X007649Y006757D01*
X007629Y006687D01*
X007605Y006617D01*
X007578Y006550D01*
X007547Y006483D01*
X007513Y006419D01*
X007475Y006356D01*
X007433Y006296D01*
X007389Y006238D01*
X007341Y006183D01*
X007290Y006130D01*
X007237Y006080D01*
X007181Y006033D01*
X007122Y005989D01*
X007061Y005949D01*
X006998Y005911D01*
X006933Y005878D01*
X006867Y005848D01*
X006798Y005821D01*
X006729Y005799D01*
X006658Y005780D01*
X006587Y005765D01*
X006514Y005754D01*
X006441Y005747D01*
X006368Y005744D01*
X006295Y005745D01*
X006222Y005750D01*
X006150Y005759D01*
X006078Y005772D01*
X006006Y005789D01*
X005936Y005810D01*
X005867Y005834D01*
X005800Y005862D01*
X005734Y005894D01*
X005670Y005930D01*
X005608Y005968D01*
X005548Y006011D01*
X005491Y006056D01*
X005436Y006104D01*
X005384Y006156D01*
X005335Y006210D01*
X005289Y006267D01*
X005246Y006326D01*
X005206Y006387D01*
X005170Y006451D01*
X005137Y006516D01*
X005108Y006583D01*
X005082Y006652D01*
X005061Y006722D01*
X005043Y006793D01*
X005029Y006865D01*
X005019Y006937D01*
X005013Y007010D01*
X005011Y007083D01*
X003085Y007189D02*
X003087Y007303D01*
X003093Y007417D01*
X003103Y007530D01*
X003117Y007643D01*
X003135Y007756D01*
X003156Y007868D01*
X003182Y007979D01*
X003211Y008089D01*
X003245Y008198D01*
X003282Y008306D01*
X003323Y008412D01*
X003367Y008517D01*
X003415Y008620D01*
X003467Y008722D01*
X003522Y008821D01*
X003581Y008919D01*
X003643Y009015D01*
X003709Y009108D01*
X003777Y009199D01*
X003849Y009288D01*
X003924Y009374D01*
X004001Y009457D01*
X004082Y009538D01*
X004165Y009615D01*
X004251Y009690D01*
X004340Y009762D01*
X004431Y009830D01*
X004524Y009896D01*
X004620Y009958D01*
X004717Y010017D01*
X004817Y010072D01*
X004919Y010124D01*
X005022Y010172D01*
X005127Y010216D01*
X005233Y010257D01*
X005341Y010294D01*
X005450Y010328D01*
X005560Y010357D01*
X005671Y010383D01*
X005783Y010404D01*
X005896Y010422D01*
X006009Y010436D01*
X006122Y010446D01*
X006236Y010452D01*
X006350Y010454D01*
X006464Y010452D01*
X006578Y010446D01*
X006691Y010436D01*
X006804Y010422D01*
X006917Y010404D01*
X007029Y010383D01*
X007140Y010357D01*
X007250Y010328D01*
X007359Y010294D01*
X007467Y010257D01*
X007573Y010216D01*
X007678Y010172D01*
X007781Y010124D01*
X007883Y010072D01*
X007982Y010017D01*
X008080Y009958D01*
X008176Y009896D01*
X008269Y009830D01*
X008360Y009762D01*
X008449Y009690D01*
X008535Y009615D01*
X008618Y009538D01*
X008699Y009457D01*
X008776Y009374D01*
X008851Y009288D01*
X008923Y009199D01*
X008991Y009108D01*
X009057Y009015D01*
X009119Y008919D01*
X009178Y008821D01*
X009233Y008722D01*
X009285Y008620D01*
X009333Y008517D01*
X009377Y008412D01*
X009418Y008306D01*
X009455Y008198D01*
X009489Y008089D01*
X009518Y007979D01*
X009544Y007868D01*
X009565Y007756D01*
X009583Y007643D01*
X009597Y007530D01*
X009607Y007417D01*
X009613Y007303D01*
X009615Y007189D01*
X009613Y007075D01*
X009607Y006961D01*
X009597Y006848D01*
X009583Y006735D01*
X009565Y006622D01*
X009544Y006510D01*
X009518Y006399D01*
X009489Y006289D01*
X009455Y006180D01*
X009418Y006072D01*
X009377Y005966D01*
X009333Y005861D01*
X009285Y005758D01*
X009233Y005656D01*
X009178Y005556D01*
X009119Y005459D01*
X009057Y005363D01*
X008991Y005270D01*
X008923Y005179D01*
X008851Y005090D01*
X008776Y005004D01*
X008699Y004921D01*
X008618Y004840D01*
X008535Y004763D01*
X008449Y004688D01*
X008360Y004616D01*
X008269Y004548D01*
X008176Y004482D01*
X008080Y004420D01*
X007983Y004361D01*
X007883Y004306D01*
X007781Y004254D01*
X007678Y004206D01*
X007573Y004162D01*
X007467Y004121D01*
X007359Y004084D01*
X007250Y004050D01*
X007140Y004021D01*
X007029Y003995D01*
X006917Y003974D01*
X006804Y003956D01*
X006691Y003942D01*
X006578Y003932D01*
X006464Y003926D01*
X006350Y003924D01*
X006236Y003926D01*
X006122Y003932D01*
X006009Y003942D01*
X005896Y003956D01*
X005783Y003974D01*
X005671Y003995D01*
X005560Y004021D01*
X005450Y004050D01*
X005341Y004084D01*
X005233Y004121D01*
X005127Y004162D01*
X005022Y004206D01*
X004919Y004254D01*
X004817Y004306D01*
X004717Y004361D01*
X004620Y004420D01*
X004524Y004482D01*
X004431Y004548D01*
X004340Y004616D01*
X004251Y004688D01*
X004165Y004763D01*
X004082Y004840D01*
X004001Y004921D01*
X003924Y005004D01*
X003849Y005090D01*
X003777Y005179D01*
X003709Y005270D01*
X003643Y005363D01*
X003581Y005459D01*
X003522Y005556D01*
X003467Y005656D01*
X003415Y005758D01*
X003367Y005861D01*
X003323Y005966D01*
X003282Y006072D01*
X003245Y006180D01*
X003211Y006289D01*
X003182Y006399D01*
X003156Y006510D01*
X003135Y006622D01*
X003117Y006735D01*
X003103Y006848D01*
X003093Y006961D01*
X003087Y007075D01*
X003085Y007189D01*
X021085Y007189D02*
X021087Y007303D01*
X021093Y007417D01*
X021103Y007530D01*
X021117Y007643D01*
X021135Y007756D01*
X021156Y007868D01*
X021182Y007979D01*
X021211Y008089D01*
X021245Y008198D01*
X021282Y008306D01*
X021323Y008412D01*
X021367Y008517D01*
X021415Y008620D01*
X021467Y008722D01*
X021522Y008821D01*
X021581Y008919D01*
X021643Y009015D01*
X021709Y009108D01*
X021777Y009199D01*
X021849Y009288D01*
X021924Y009374D01*
X022001Y009457D01*
X022082Y009538D01*
X022165Y009615D01*
X022251Y009690D01*
X022340Y009762D01*
X022431Y009830D01*
X022524Y009896D01*
X022620Y009958D01*
X022717Y010017D01*
X022817Y010072D01*
X022919Y010124D01*
X023022Y010172D01*
X023127Y010216D01*
X023233Y010257D01*
X023341Y010294D01*
X023450Y010328D01*
X023560Y010357D01*
X023671Y010383D01*
X023783Y010404D01*
X023896Y010422D01*
X024009Y010436D01*
X024122Y010446D01*
X024236Y010452D01*
X024350Y010454D01*
X024464Y010452D01*
X024578Y010446D01*
X024691Y010436D01*
X024804Y010422D01*
X024917Y010404D01*
X025029Y010383D01*
X025140Y010357D01*
X025250Y010328D01*
X025359Y010294D01*
X025467Y010257D01*
X025573Y010216D01*
X025678Y010172D01*
X025781Y010124D01*
X025883Y010072D01*
X025982Y010017D01*
X026080Y009958D01*
X026176Y009896D01*
X026269Y009830D01*
X026360Y009762D01*
X026449Y009690D01*
X026535Y009615D01*
X026618Y009538D01*
X026699Y009457D01*
X026776Y009374D01*
X026851Y009288D01*
X026923Y009199D01*
X026991Y009108D01*
X027057Y009015D01*
X027119Y008919D01*
X027178Y008821D01*
X027233Y008722D01*
X027285Y008620D01*
X027333Y008517D01*
X027377Y008412D01*
X027418Y008306D01*
X027455Y008198D01*
X027489Y008089D01*
X027518Y007979D01*
X027544Y007868D01*
X027565Y007756D01*
X027583Y007643D01*
X027597Y007530D01*
X027607Y007417D01*
X027613Y007303D01*
X027615Y007189D01*
X027613Y007075D01*
X027607Y006961D01*
X027597Y006848D01*
X027583Y006735D01*
X027565Y006622D01*
X027544Y006510D01*
X027518Y006399D01*
X027489Y006289D01*
X027455Y006180D01*
X027418Y006072D01*
X027377Y005966D01*
X027333Y005861D01*
X027285Y005758D01*
X027233Y005656D01*
X027178Y005556D01*
X027119Y005459D01*
X027057Y005363D01*
X026991Y005270D01*
X026923Y005179D01*
X026851Y005090D01*
X026776Y005004D01*
X026699Y004921D01*
X026618Y004840D01*
X026535Y004763D01*
X026449Y004688D01*
X026360Y004616D01*
X026269Y004548D01*
X026176Y004482D01*
X026080Y004420D01*
X025983Y004361D01*
X025883Y004306D01*
X025781Y004254D01*
X025678Y004206D01*
X025573Y004162D01*
X025467Y004121D01*
X025359Y004084D01*
X025250Y004050D01*
X025140Y004021D01*
X025029Y003995D01*
X024917Y003974D01*
X024804Y003956D01*
X024691Y003942D01*
X024578Y003932D01*
X024464Y003926D01*
X024350Y003924D01*
X024236Y003926D01*
X024122Y003932D01*
X024009Y003942D01*
X023896Y003956D01*
X023783Y003974D01*
X023671Y003995D01*
X023560Y004021D01*
X023450Y004050D01*
X023341Y004084D01*
X023233Y004121D01*
X023127Y004162D01*
X023022Y004206D01*
X022919Y004254D01*
X022817Y004306D01*
X022717Y004361D01*
X022620Y004420D01*
X022524Y004482D01*
X022431Y004548D01*
X022340Y004616D01*
X022251Y004688D01*
X022165Y004763D01*
X022082Y004840D01*
X022001Y004921D01*
X021924Y005004D01*
X021849Y005090D01*
X021777Y005179D01*
X021709Y005270D01*
X021643Y005363D01*
X021581Y005459D01*
X021522Y005556D01*
X021467Y005656D01*
X021415Y005758D01*
X021367Y005861D01*
X021323Y005966D01*
X021282Y006072D01*
X021245Y006180D01*
X021211Y006289D01*
X021182Y006399D01*
X021156Y006510D01*
X021135Y006622D01*
X021117Y006735D01*
X021103Y006848D01*
X021093Y006961D01*
X021087Y007075D01*
X021085Y007189D01*
X023011Y007083D02*
X023013Y007156D01*
X023019Y007229D01*
X023029Y007301D01*
X023043Y007373D01*
X023061Y007444D01*
X023082Y007514D01*
X023108Y007583D01*
X023137Y007650D01*
X023170Y007715D01*
X023206Y007779D01*
X023246Y007840D01*
X023289Y007899D01*
X023335Y007956D01*
X023384Y008010D01*
X023436Y008062D01*
X023491Y008110D01*
X023548Y008155D01*
X023608Y008198D01*
X023670Y008236D01*
X023734Y008272D01*
X023800Y008304D01*
X023867Y008332D01*
X023936Y008356D01*
X024006Y008377D01*
X024078Y008394D01*
X024150Y008407D01*
X024222Y008416D01*
X024295Y008421D01*
X024368Y008422D01*
X024441Y008419D01*
X024514Y008412D01*
X024587Y008401D01*
X024658Y008386D01*
X024729Y008367D01*
X024798Y008345D01*
X024867Y008318D01*
X024933Y008288D01*
X024998Y008255D01*
X025061Y008217D01*
X025122Y008177D01*
X025181Y008133D01*
X025237Y008086D01*
X025290Y008036D01*
X025341Y007983D01*
X025389Y007928D01*
X025433Y007870D01*
X025475Y007810D01*
X025513Y007747D01*
X025547Y007683D01*
X025578Y007616D01*
X025605Y007549D01*
X025629Y007479D01*
X025649Y007409D01*
X025665Y007337D01*
X025677Y007265D01*
X025685Y007193D01*
X025689Y007120D01*
X025689Y007046D01*
X025685Y006973D01*
X025677Y006901D01*
X025665Y006829D01*
X025649Y006757D01*
X025629Y006687D01*
X025605Y006617D01*
X025578Y006550D01*
X025547Y006483D01*
X025513Y006419D01*
X025475Y006356D01*
X025433Y006296D01*
X025389Y006238D01*
X025341Y006183D01*
X025290Y006130D01*
X025237Y006080D01*
X025181Y006033D01*
X025122Y005989D01*
X025061Y005949D01*
X024998Y005911D01*
X024933Y005878D01*
X024867Y005848D01*
X024798Y005821D01*
X024729Y005799D01*
X024658Y005780D01*
X024587Y005765D01*
X024514Y005754D01*
X024441Y005747D01*
X024368Y005744D01*
X024295Y005745D01*
X024222Y005750D01*
X024150Y005759D01*
X024078Y005772D01*
X024006Y005789D01*
X023936Y005810D01*
X023867Y005834D01*
X023800Y005862D01*
X023734Y005894D01*
X023670Y005930D01*
X023608Y005968D01*
X023548Y006011D01*
X023491Y006056D01*
X023436Y006104D01*
X023384Y006156D01*
X023335Y006210D01*
X023289Y006267D01*
X023246Y006326D01*
X023206Y006387D01*
X023170Y006451D01*
X023137Y006516D01*
X023108Y006583D01*
X023082Y006652D01*
X023061Y006722D01*
X023043Y006793D01*
X023029Y006865D01*
X023019Y006937D01*
X023013Y007010D01*
X023011Y007083D01*
X011950Y028500D02*
X011952Y028616D01*
X011958Y028732D01*
X011968Y028848D01*
X011982Y028963D01*
X011999Y029078D01*
X012021Y029192D01*
X012047Y029305D01*
X012076Y029417D01*
X012109Y029529D01*
X012146Y029639D01*
X012187Y029747D01*
X012231Y029855D01*
X012280Y029960D01*
X012331Y030064D01*
X012386Y030166D01*
X012445Y030267D01*
X012507Y030365D01*
X012572Y030461D01*
X012641Y030554D01*
X012713Y030646D01*
X012787Y030734D01*
X012865Y030821D01*
X012946Y030904D01*
X013029Y030985D01*
X013116Y031063D01*
X013204Y031137D01*
X013296Y031209D01*
X013389Y031278D01*
X013485Y031343D01*
X013583Y031405D01*
X013684Y031464D01*
X013786Y031519D01*
X013890Y031570D01*
X013995Y031619D01*
X014103Y031663D01*
X014211Y031704D01*
X014321Y031741D01*
X014433Y031774D01*
X014545Y031803D01*
X014658Y031829D01*
X014772Y031851D01*
X014887Y031868D01*
X015002Y031882D01*
X015118Y031892D01*
X015234Y031898D01*
X015350Y031900D01*
X015466Y031898D01*
X015582Y031892D01*
X015698Y031882D01*
X015813Y031868D01*
X015928Y031851D01*
X016042Y031829D01*
X016155Y031803D01*
X016267Y031774D01*
X016379Y031741D01*
X016489Y031704D01*
X016597Y031663D01*
X016705Y031619D01*
X016810Y031570D01*
X016914Y031519D01*
X017016Y031464D01*
X017117Y031405D01*
X017215Y031343D01*
X017311Y031278D01*
X017404Y031209D01*
X017496Y031137D01*
X017584Y031063D01*
X017671Y030985D01*
X017754Y030904D01*
X017835Y030821D01*
X017913Y030734D01*
X017987Y030646D01*
X018059Y030554D01*
X018128Y030461D01*
X018193Y030365D01*
X018255Y030267D01*
X018314Y030166D01*
X018369Y030064D01*
X018420Y029960D01*
X018469Y029855D01*
X018513Y029747D01*
X018554Y029639D01*
X018591Y029529D01*
X018624Y029417D01*
X018653Y029305D01*
X018679Y029192D01*
X018701Y029078D01*
X018718Y028963D01*
X018732Y028848D01*
X018742Y028732D01*
X018748Y028616D01*
X018750Y028500D01*
X018748Y028384D01*
X018742Y028268D01*
X018732Y028152D01*
X018718Y028037D01*
X018701Y027922D01*
X018679Y027808D01*
X018653Y027695D01*
X018624Y027583D01*
X018591Y027471D01*
X018554Y027361D01*
X018513Y027253D01*
X018469Y027145D01*
X018420Y027040D01*
X018369Y026936D01*
X018314Y026834D01*
X018255Y026733D01*
X018193Y026635D01*
X018128Y026539D01*
X018059Y026446D01*
X017987Y026354D01*
X017913Y026266D01*
X017835Y026179D01*
X017754Y026096D01*
X017671Y026015D01*
X017584Y025937D01*
X017496Y025863D01*
X017404Y025791D01*
X017311Y025722D01*
X017215Y025657D01*
X017117Y025595D01*
X017016Y025536D01*
X016914Y025481D01*
X016810Y025430D01*
X016705Y025381D01*
X016597Y025337D01*
X016489Y025296D01*
X016379Y025259D01*
X016267Y025226D01*
X016155Y025197D01*
X016042Y025171D01*
X015928Y025149D01*
X015813Y025132D01*
X015698Y025118D01*
X015582Y025108D01*
X015466Y025102D01*
X015350Y025100D01*
X015234Y025102D01*
X015118Y025108D01*
X015002Y025118D01*
X014887Y025132D01*
X014772Y025149D01*
X014658Y025171D01*
X014545Y025197D01*
X014433Y025226D01*
X014321Y025259D01*
X014211Y025296D01*
X014103Y025337D01*
X013995Y025381D01*
X013890Y025430D01*
X013786Y025481D01*
X013684Y025536D01*
X013583Y025595D01*
X013485Y025657D01*
X013389Y025722D01*
X013296Y025791D01*
X013204Y025863D01*
X013116Y025937D01*
X013029Y026015D01*
X012946Y026096D01*
X012865Y026179D01*
X012787Y026266D01*
X012713Y026354D01*
X012641Y026446D01*
X012572Y026539D01*
X012507Y026635D01*
X012445Y026733D01*
X012386Y026834D01*
X012331Y026936D01*
X012280Y027040D01*
X012231Y027145D01*
X012187Y027253D01*
X012146Y027361D01*
X012109Y027471D01*
X012076Y027583D01*
X012047Y027695D01*
X012021Y027808D01*
X011999Y027922D01*
X011982Y028037D01*
X011968Y028152D01*
X011958Y028268D01*
X011952Y028384D01*
X011950Y028500D01*
X003085Y028811D02*
X003087Y028925D01*
X003093Y029039D01*
X003103Y029152D01*
X003117Y029265D01*
X003135Y029378D01*
X003156Y029490D01*
X003182Y029601D01*
X003211Y029711D01*
X003245Y029820D01*
X003282Y029928D01*
X003323Y030034D01*
X003367Y030139D01*
X003415Y030242D01*
X003467Y030344D01*
X003522Y030443D01*
X003581Y030541D01*
X003643Y030637D01*
X003709Y030730D01*
X003777Y030821D01*
X003849Y030910D01*
X003924Y030996D01*
X004001Y031079D01*
X004082Y031160D01*
X004165Y031237D01*
X004251Y031312D01*
X004340Y031384D01*
X004431Y031452D01*
X004524Y031518D01*
X004620Y031580D01*
X004717Y031639D01*
X004817Y031694D01*
X004919Y031746D01*
X005022Y031794D01*
X005127Y031838D01*
X005233Y031879D01*
X005341Y031916D01*
X005450Y031950D01*
X005560Y031979D01*
X005671Y032005D01*
X005783Y032026D01*
X005896Y032044D01*
X006009Y032058D01*
X006122Y032068D01*
X006236Y032074D01*
X006350Y032076D01*
X006464Y032074D01*
X006578Y032068D01*
X006691Y032058D01*
X006804Y032044D01*
X006917Y032026D01*
X007029Y032005D01*
X007140Y031979D01*
X007250Y031950D01*
X007359Y031916D01*
X007467Y031879D01*
X007573Y031838D01*
X007678Y031794D01*
X007781Y031746D01*
X007883Y031694D01*
X007982Y031639D01*
X008080Y031580D01*
X008176Y031518D01*
X008269Y031452D01*
X008360Y031384D01*
X008449Y031312D01*
X008535Y031237D01*
X008618Y031160D01*
X008699Y031079D01*
X008776Y030996D01*
X008851Y030910D01*
X008923Y030821D01*
X008991Y030730D01*
X009057Y030637D01*
X009119Y030541D01*
X009178Y030443D01*
X009233Y030344D01*
X009285Y030242D01*
X009333Y030139D01*
X009377Y030034D01*
X009418Y029928D01*
X009455Y029820D01*
X009489Y029711D01*
X009518Y029601D01*
X009544Y029490D01*
X009565Y029378D01*
X009583Y029265D01*
X009597Y029152D01*
X009607Y029039D01*
X009613Y028925D01*
X009615Y028811D01*
X009613Y028697D01*
X009607Y028583D01*
X009597Y028470D01*
X009583Y028357D01*
X009565Y028244D01*
X009544Y028132D01*
X009518Y028021D01*
X009489Y027911D01*
X009455Y027802D01*
X009418Y027694D01*
X009377Y027588D01*
X009333Y027483D01*
X009285Y027380D01*
X009233Y027278D01*
X009178Y027178D01*
X009119Y027081D01*
X009057Y026985D01*
X008991Y026892D01*
X008923Y026801D01*
X008851Y026712D01*
X008776Y026626D01*
X008699Y026543D01*
X008618Y026462D01*
X008535Y026385D01*
X008449Y026310D01*
X008360Y026238D01*
X008269Y026170D01*
X008176Y026104D01*
X008080Y026042D01*
X007983Y025983D01*
X007883Y025928D01*
X007781Y025876D01*
X007678Y025828D01*
X007573Y025784D01*
X007467Y025743D01*
X007359Y025706D01*
X007250Y025672D01*
X007140Y025643D01*
X007029Y025617D01*
X006917Y025596D01*
X006804Y025578D01*
X006691Y025564D01*
X006578Y025554D01*
X006464Y025548D01*
X006350Y025546D01*
X006236Y025548D01*
X006122Y025554D01*
X006009Y025564D01*
X005896Y025578D01*
X005783Y025596D01*
X005671Y025617D01*
X005560Y025643D01*
X005450Y025672D01*
X005341Y025706D01*
X005233Y025743D01*
X005127Y025784D01*
X005022Y025828D01*
X004919Y025876D01*
X004817Y025928D01*
X004717Y025983D01*
X004620Y026042D01*
X004524Y026104D01*
X004431Y026170D01*
X004340Y026238D01*
X004251Y026310D01*
X004165Y026385D01*
X004082Y026462D01*
X004001Y026543D01*
X003924Y026626D01*
X003849Y026712D01*
X003777Y026801D01*
X003709Y026892D01*
X003643Y026985D01*
X003581Y027081D01*
X003522Y027178D01*
X003467Y027278D01*
X003415Y027380D01*
X003367Y027483D01*
X003323Y027588D01*
X003282Y027694D01*
X003245Y027802D01*
X003211Y027911D01*
X003182Y028021D01*
X003156Y028132D01*
X003135Y028244D01*
X003117Y028357D01*
X003103Y028470D01*
X003093Y028583D01*
X003087Y028697D01*
X003085Y028811D01*
X005011Y028917D02*
X005013Y028990D01*
X005019Y029063D01*
X005029Y029135D01*
X005043Y029207D01*
X005061Y029278D01*
X005082Y029348D01*
X005108Y029417D01*
X005137Y029484D01*
X005170Y029549D01*
X005206Y029613D01*
X005246Y029674D01*
X005289Y029733D01*
X005335Y029790D01*
X005384Y029844D01*
X005436Y029896D01*
X005491Y029944D01*
X005548Y029989D01*
X005608Y030032D01*
X005670Y030070D01*
X005734Y030106D01*
X005800Y030138D01*
X005867Y030166D01*
X005936Y030190D01*
X006006Y030211D01*
X006078Y030228D01*
X006150Y030241D01*
X006222Y030250D01*
X006295Y030255D01*
X006368Y030256D01*
X006441Y030253D01*
X006514Y030246D01*
X006587Y030235D01*
X006658Y030220D01*
X006729Y030201D01*
X006798Y030179D01*
X006867Y030152D01*
X006933Y030122D01*
X006998Y030089D01*
X007061Y030051D01*
X007122Y030011D01*
X007181Y029967D01*
X007237Y029920D01*
X007290Y029870D01*
X007341Y029817D01*
X007389Y029762D01*
X007433Y029704D01*
X007475Y029644D01*
X007513Y029581D01*
X007547Y029517D01*
X007578Y029450D01*
X007605Y029383D01*
X007629Y029313D01*
X007649Y029243D01*
X007665Y029171D01*
X007677Y029099D01*
X007685Y029027D01*
X007689Y028954D01*
X007689Y028880D01*
X007685Y028807D01*
X007677Y028735D01*
X007665Y028663D01*
X007649Y028591D01*
X007629Y028521D01*
X007605Y028451D01*
X007578Y028384D01*
X007547Y028317D01*
X007513Y028253D01*
X007475Y028190D01*
X007433Y028130D01*
X007389Y028072D01*
X007341Y028017D01*
X007290Y027964D01*
X007237Y027914D01*
X007181Y027867D01*
X007122Y027823D01*
X007061Y027783D01*
X006998Y027745D01*
X006933Y027712D01*
X006867Y027682D01*
X006798Y027655D01*
X006729Y027633D01*
X006658Y027614D01*
X006587Y027599D01*
X006514Y027588D01*
X006441Y027581D01*
X006368Y027578D01*
X006295Y027579D01*
X006222Y027584D01*
X006150Y027593D01*
X006078Y027606D01*
X006006Y027623D01*
X005936Y027644D01*
X005867Y027668D01*
X005800Y027696D01*
X005734Y027728D01*
X005670Y027764D01*
X005608Y027802D01*
X005548Y027845D01*
X005491Y027890D01*
X005436Y027938D01*
X005384Y027990D01*
X005335Y028044D01*
X005289Y028101D01*
X005246Y028160D01*
X005206Y028221D01*
X005170Y028285D01*
X005137Y028350D01*
X005108Y028417D01*
X005082Y028486D01*
X005061Y028556D01*
X005043Y028627D01*
X005029Y028699D01*
X005019Y028771D01*
X005013Y028844D01*
X005011Y028917D01*
X023011Y028917D02*
X023013Y028990D01*
X023019Y029063D01*
X023029Y029135D01*
X023043Y029207D01*
X023061Y029278D01*
X023082Y029348D01*
X023108Y029417D01*
X023137Y029484D01*
X023170Y029549D01*
X023206Y029613D01*
X023246Y029674D01*
X023289Y029733D01*
X023335Y029790D01*
X023384Y029844D01*
X023436Y029896D01*
X023491Y029944D01*
X023548Y029989D01*
X023608Y030032D01*
X023670Y030070D01*
X023734Y030106D01*
X023800Y030138D01*
X023867Y030166D01*
X023936Y030190D01*
X024006Y030211D01*
X024078Y030228D01*
X024150Y030241D01*
X024222Y030250D01*
X024295Y030255D01*
X024368Y030256D01*
X024441Y030253D01*
X024514Y030246D01*
X024587Y030235D01*
X024658Y030220D01*
X024729Y030201D01*
X024798Y030179D01*
X024867Y030152D01*
X024933Y030122D01*
X024998Y030089D01*
X025061Y030051D01*
X025122Y030011D01*
X025181Y029967D01*
X025237Y029920D01*
X025290Y029870D01*
X025341Y029817D01*
X025389Y029762D01*
X025433Y029704D01*
X025475Y029644D01*
X025513Y029581D01*
X025547Y029517D01*
X025578Y029450D01*
X025605Y029383D01*
X025629Y029313D01*
X025649Y029243D01*
X025665Y029171D01*
X025677Y029099D01*
X025685Y029027D01*
X025689Y028954D01*
X025689Y028880D01*
X025685Y028807D01*
X025677Y028735D01*
X025665Y028663D01*
X025649Y028591D01*
X025629Y028521D01*
X025605Y028451D01*
X025578Y028384D01*
X025547Y028317D01*
X025513Y028253D01*
X025475Y028190D01*
X025433Y028130D01*
X025389Y028072D01*
X025341Y028017D01*
X025290Y027964D01*
X025237Y027914D01*
X025181Y027867D01*
X025122Y027823D01*
X025061Y027783D01*
X024998Y027745D01*
X024933Y027712D01*
X024867Y027682D01*
X024798Y027655D01*
X024729Y027633D01*
X024658Y027614D01*
X024587Y027599D01*
X024514Y027588D01*
X024441Y027581D01*
X024368Y027578D01*
X024295Y027579D01*
X024222Y027584D01*
X024150Y027593D01*
X024078Y027606D01*
X024006Y027623D01*
X023936Y027644D01*
X023867Y027668D01*
X023800Y027696D01*
X023734Y027728D01*
X023670Y027764D01*
X023608Y027802D01*
X023548Y027845D01*
X023491Y027890D01*
X023436Y027938D01*
X023384Y027990D01*
X023335Y028044D01*
X023289Y028101D01*
X023246Y028160D01*
X023206Y028221D01*
X023170Y028285D01*
X023137Y028350D01*
X023108Y028417D01*
X023082Y028486D01*
X023061Y028556D01*
X023043Y028627D01*
X023029Y028699D01*
X023019Y028771D01*
X023013Y028844D01*
X023011Y028917D01*
X021085Y028811D02*
X021087Y028925D01*
X021093Y029039D01*
X021103Y029152D01*
X021117Y029265D01*
X021135Y029378D01*
X021156Y029490D01*
X021182Y029601D01*
X021211Y029711D01*
X021245Y029820D01*
X021282Y029928D01*
X021323Y030034D01*
X021367Y030139D01*
X021415Y030242D01*
X021467Y030344D01*
X021522Y030443D01*
X021581Y030541D01*
X021643Y030637D01*
X021709Y030730D01*
X021777Y030821D01*
X021849Y030910D01*
X021924Y030996D01*
X022001Y031079D01*
X022082Y031160D01*
X022165Y031237D01*
X022251Y031312D01*
X022340Y031384D01*
X022431Y031452D01*
X022524Y031518D01*
X022620Y031580D01*
X022717Y031639D01*
X022817Y031694D01*
X022919Y031746D01*
X023022Y031794D01*
X023127Y031838D01*
X023233Y031879D01*
X023341Y031916D01*
X023450Y031950D01*
X023560Y031979D01*
X023671Y032005D01*
X023783Y032026D01*
X023896Y032044D01*
X024009Y032058D01*
X024122Y032068D01*
X024236Y032074D01*
X024350Y032076D01*
X024464Y032074D01*
X024578Y032068D01*
X024691Y032058D01*
X024804Y032044D01*
X024917Y032026D01*
X025029Y032005D01*
X025140Y031979D01*
X025250Y031950D01*
X025359Y031916D01*
X025467Y031879D01*
X025573Y031838D01*
X025678Y031794D01*
X025781Y031746D01*
X025883Y031694D01*
X025982Y031639D01*
X026080Y031580D01*
X026176Y031518D01*
X026269Y031452D01*
X026360Y031384D01*
X026449Y031312D01*
X026535Y031237D01*
X026618Y031160D01*
X026699Y031079D01*
X026776Y030996D01*
X026851Y030910D01*
X026923Y030821D01*
X026991Y030730D01*
X027057Y030637D01*
X027119Y030541D01*
X027178Y030443D01*
X027233Y030344D01*
X027285Y030242D01*
X027333Y030139D01*
X027377Y030034D01*
X027418Y029928D01*
X027455Y029820D01*
X027489Y029711D01*
X027518Y029601D01*
X027544Y029490D01*
X027565Y029378D01*
X027583Y029265D01*
X027597Y029152D01*
X027607Y029039D01*
X027613Y028925D01*
X027615Y028811D01*
X027613Y028697D01*
X027607Y028583D01*
X027597Y028470D01*
X027583Y028357D01*
X027565Y028244D01*
X027544Y028132D01*
X027518Y028021D01*
X027489Y027911D01*
X027455Y027802D01*
X027418Y027694D01*
X027377Y027588D01*
X027333Y027483D01*
X027285Y027380D01*
X027233Y027278D01*
X027178Y027178D01*
X027119Y027081D01*
X027057Y026985D01*
X026991Y026892D01*
X026923Y026801D01*
X026851Y026712D01*
X026776Y026626D01*
X026699Y026543D01*
X026618Y026462D01*
X026535Y026385D01*
X026449Y026310D01*
X026360Y026238D01*
X026269Y026170D01*
X026176Y026104D01*
X026080Y026042D01*
X025983Y025983D01*
X025883Y025928D01*
X025781Y025876D01*
X025678Y025828D01*
X025573Y025784D01*
X025467Y025743D01*
X025359Y025706D01*
X025250Y025672D01*
X025140Y025643D01*
X025029Y025617D01*
X024917Y025596D01*
X024804Y025578D01*
X024691Y025564D01*
X024578Y025554D01*
X024464Y025548D01*
X024350Y025546D01*
X024236Y025548D01*
X024122Y025554D01*
X024009Y025564D01*
X023896Y025578D01*
X023783Y025596D01*
X023671Y025617D01*
X023560Y025643D01*
X023450Y025672D01*
X023341Y025706D01*
X023233Y025743D01*
X023127Y025784D01*
X023022Y025828D01*
X022919Y025876D01*
X022817Y025928D01*
X022717Y025983D01*
X022620Y026042D01*
X022524Y026104D01*
X022431Y026170D01*
X022340Y026238D01*
X022251Y026310D01*
X022165Y026385D01*
X022082Y026462D01*
X022001Y026543D01*
X021924Y026626D01*
X021849Y026712D01*
X021777Y026801D01*
X021709Y026892D01*
X021643Y026985D01*
X021581Y027081D01*
X021522Y027178D01*
X021467Y027278D01*
X021415Y027380D01*
X021367Y027483D01*
X021323Y027588D01*
X021282Y027694D01*
X021245Y027802D01*
X021211Y027911D01*
X021182Y028021D01*
X021156Y028132D01*
X021135Y028244D01*
X021117Y028357D01*
X021103Y028470D01*
X021093Y028583D01*
X021087Y028697D01*
X021085Y028811D01*
D13*
X017600Y030000D02*
X017100Y030000D01*
X017350Y030250D02*
X017350Y029750D01*
M02*
