G75*
%MOIN*%
%OFA0B0*%
%FSLAX24Y24*%
%IPPOS*%
%LPD*%
%AMOC8*
5,1,8,0,0,1.08239X$1,22.5*
%
%ADD10C,0.1340*%
%ADD11C,0.0600*%
%ADD12C,0.0820*%
%ADD13C,0.0730*%
%ADD14OC8,0.1080*%
%ADD15C,0.0600*%
%ADD16C,0.1340*%
%ADD17C,0.0730*%
D10*
X001350Y011500D03*
X010850Y020000D03*
X010850Y029750D03*
X028350Y031000D03*
X028350Y011500D03*
D11*
X017110Y012500D02*
X016590Y012500D01*
X016590Y013500D02*
X017110Y013500D01*
X017110Y014500D02*
X016590Y014500D01*
X016590Y015500D02*
X017110Y015500D01*
X017110Y016500D02*
X016590Y016500D01*
X016590Y017500D02*
X017110Y017500D01*
X017110Y018500D02*
X016590Y018500D01*
X014110Y018500D02*
X013590Y018500D01*
X013590Y017500D02*
X014110Y017500D01*
X014110Y016500D02*
X013590Y016500D01*
X013590Y015500D02*
X014110Y015500D01*
X014110Y014500D02*
X013590Y014500D01*
X013590Y013500D02*
X014110Y013500D01*
X014110Y012500D02*
X013590Y012500D01*
D12*
X012350Y015500D03*
X012350Y018500D03*
X020350Y019000D03*
X023350Y019000D03*
X019850Y027500D03*
X019850Y028500D03*
D13*
X022488Y022492D03*
X024350Y022492D03*
X026189Y022496D03*
X026212Y013508D03*
X024350Y013508D03*
X022511Y013504D03*
X008212Y013508D03*
X006350Y013508D03*
X004511Y013504D03*
X004488Y022492D03*
X006350Y022492D03*
X008189Y022496D03*
D14*
X013400Y028500D03*
X017300Y028500D03*
D15*
X012350Y023500D03*
X012350Y022500D03*
D16*
X014720Y022000D02*
X015980Y022000D01*
X015980Y023750D02*
X014720Y023750D01*
X014720Y020250D02*
X015980Y020250D01*
D17*
X021366Y020000D03*
X023334Y020000D03*
X018350Y013484D03*
X018350Y011516D03*
X010350Y013516D03*
X010350Y015484D03*
X005334Y016500D03*
X003366Y016500D03*
X003334Y019000D03*
X001366Y019000D03*
M02*
