G75*
%MOIN*%
%OFA0B0*%
%FSLAX24Y24*%
%IPPOS*%
%LPD*%
%AMOC8*
5,1,8,0,0,1.08239X$1,22.5*
%
%ADD10C,0.0000*%
%ADD11C,0.0520*%
%ADD12C,0.0740*%
%ADD13C,0.0650*%
%ADD14OC8,0.1000*%
%ADD15C,0.0520*%
%ADD16C,0.1260*%
%ADD17C,0.0650*%
D10*
X000350Y010500D02*
X000350Y031996D01*
X029220Y031996D01*
X029220Y010500D01*
X000350Y010500D01*
X000720Y011500D02*
X000722Y011550D01*
X000728Y011600D01*
X000738Y011649D01*
X000752Y011697D01*
X000769Y011744D01*
X000790Y011789D01*
X000815Y011833D01*
X000843Y011874D01*
X000875Y011913D01*
X000909Y011950D01*
X000946Y011984D01*
X000986Y012014D01*
X001028Y012041D01*
X001072Y012065D01*
X001118Y012086D01*
X001165Y012102D01*
X001213Y012115D01*
X001263Y012124D01*
X001312Y012129D01*
X001363Y012130D01*
X001413Y012127D01*
X001462Y012120D01*
X001511Y012109D01*
X001559Y012094D01*
X001605Y012076D01*
X001650Y012054D01*
X001693Y012028D01*
X001734Y011999D01*
X001773Y011967D01*
X001809Y011932D01*
X001841Y011894D01*
X001871Y011854D01*
X001898Y011811D01*
X001921Y011767D01*
X001940Y011721D01*
X001956Y011673D01*
X001968Y011624D01*
X001976Y011575D01*
X001980Y011525D01*
X001980Y011475D01*
X001976Y011425D01*
X001968Y011376D01*
X001956Y011327D01*
X001940Y011279D01*
X001921Y011233D01*
X001898Y011189D01*
X001871Y011146D01*
X001841Y011106D01*
X001809Y011068D01*
X001773Y011033D01*
X001734Y011001D01*
X001693Y010972D01*
X001650Y010946D01*
X001605Y010924D01*
X001559Y010906D01*
X001511Y010891D01*
X001462Y010880D01*
X001413Y010873D01*
X001363Y010870D01*
X001312Y010871D01*
X001263Y010876D01*
X001213Y010885D01*
X001165Y010898D01*
X001118Y010914D01*
X001072Y010935D01*
X001028Y010959D01*
X000986Y010986D01*
X000946Y011016D01*
X000909Y011050D01*
X000875Y011087D01*
X000843Y011126D01*
X000815Y011167D01*
X000790Y011211D01*
X000769Y011256D01*
X000752Y011303D01*
X000738Y011351D01*
X000728Y011400D01*
X000722Y011450D01*
X000720Y011500D01*
X010220Y020000D02*
X010222Y020050D01*
X010228Y020100D01*
X010238Y020149D01*
X010252Y020197D01*
X010269Y020244D01*
X010290Y020289D01*
X010315Y020333D01*
X010343Y020374D01*
X010375Y020413D01*
X010409Y020450D01*
X010446Y020484D01*
X010486Y020514D01*
X010528Y020541D01*
X010572Y020565D01*
X010618Y020586D01*
X010665Y020602D01*
X010713Y020615D01*
X010763Y020624D01*
X010812Y020629D01*
X010863Y020630D01*
X010913Y020627D01*
X010962Y020620D01*
X011011Y020609D01*
X011059Y020594D01*
X011105Y020576D01*
X011150Y020554D01*
X011193Y020528D01*
X011234Y020499D01*
X011273Y020467D01*
X011309Y020432D01*
X011341Y020394D01*
X011371Y020354D01*
X011398Y020311D01*
X011421Y020267D01*
X011440Y020221D01*
X011456Y020173D01*
X011468Y020124D01*
X011476Y020075D01*
X011480Y020025D01*
X011480Y019975D01*
X011476Y019925D01*
X011468Y019876D01*
X011456Y019827D01*
X011440Y019779D01*
X011421Y019733D01*
X011398Y019689D01*
X011371Y019646D01*
X011341Y019606D01*
X011309Y019568D01*
X011273Y019533D01*
X011234Y019501D01*
X011193Y019472D01*
X011150Y019446D01*
X011105Y019424D01*
X011059Y019406D01*
X011011Y019391D01*
X010962Y019380D01*
X010913Y019373D01*
X010863Y019370D01*
X010812Y019371D01*
X010763Y019376D01*
X010713Y019385D01*
X010665Y019398D01*
X010618Y019414D01*
X010572Y019435D01*
X010528Y019459D01*
X010486Y019486D01*
X010446Y019516D01*
X010409Y019550D01*
X010375Y019587D01*
X010343Y019626D01*
X010315Y019667D01*
X010290Y019711D01*
X010269Y019756D01*
X010252Y019803D01*
X010238Y019851D01*
X010228Y019900D01*
X010222Y019950D01*
X010220Y020000D01*
X010220Y029750D02*
X010222Y029800D01*
X010228Y029850D01*
X010238Y029899D01*
X010252Y029947D01*
X010269Y029994D01*
X010290Y030039D01*
X010315Y030083D01*
X010343Y030124D01*
X010375Y030163D01*
X010409Y030200D01*
X010446Y030234D01*
X010486Y030264D01*
X010528Y030291D01*
X010572Y030315D01*
X010618Y030336D01*
X010665Y030352D01*
X010713Y030365D01*
X010763Y030374D01*
X010812Y030379D01*
X010863Y030380D01*
X010913Y030377D01*
X010962Y030370D01*
X011011Y030359D01*
X011059Y030344D01*
X011105Y030326D01*
X011150Y030304D01*
X011193Y030278D01*
X011234Y030249D01*
X011273Y030217D01*
X011309Y030182D01*
X011341Y030144D01*
X011371Y030104D01*
X011398Y030061D01*
X011421Y030017D01*
X011440Y029971D01*
X011456Y029923D01*
X011468Y029874D01*
X011476Y029825D01*
X011480Y029775D01*
X011480Y029725D01*
X011476Y029675D01*
X011468Y029626D01*
X011456Y029577D01*
X011440Y029529D01*
X011421Y029483D01*
X011398Y029439D01*
X011371Y029396D01*
X011341Y029356D01*
X011309Y029318D01*
X011273Y029283D01*
X011234Y029251D01*
X011193Y029222D01*
X011150Y029196D01*
X011105Y029174D01*
X011059Y029156D01*
X011011Y029141D01*
X010962Y029130D01*
X010913Y029123D01*
X010863Y029120D01*
X010812Y029121D01*
X010763Y029126D01*
X010713Y029135D01*
X010665Y029148D01*
X010618Y029164D01*
X010572Y029185D01*
X010528Y029209D01*
X010486Y029236D01*
X010446Y029266D01*
X010409Y029300D01*
X010375Y029337D01*
X010343Y029376D01*
X010315Y029417D01*
X010290Y029461D01*
X010269Y029506D01*
X010252Y029553D01*
X010238Y029601D01*
X010228Y029650D01*
X010222Y029700D01*
X010220Y029750D01*
X027720Y031000D02*
X027722Y031050D01*
X027728Y031100D01*
X027738Y031149D01*
X027752Y031197D01*
X027769Y031244D01*
X027790Y031289D01*
X027815Y031333D01*
X027843Y031374D01*
X027875Y031413D01*
X027909Y031450D01*
X027946Y031484D01*
X027986Y031514D01*
X028028Y031541D01*
X028072Y031565D01*
X028118Y031586D01*
X028165Y031602D01*
X028213Y031615D01*
X028263Y031624D01*
X028312Y031629D01*
X028363Y031630D01*
X028413Y031627D01*
X028462Y031620D01*
X028511Y031609D01*
X028559Y031594D01*
X028605Y031576D01*
X028650Y031554D01*
X028693Y031528D01*
X028734Y031499D01*
X028773Y031467D01*
X028809Y031432D01*
X028841Y031394D01*
X028871Y031354D01*
X028898Y031311D01*
X028921Y031267D01*
X028940Y031221D01*
X028956Y031173D01*
X028968Y031124D01*
X028976Y031075D01*
X028980Y031025D01*
X028980Y030975D01*
X028976Y030925D01*
X028968Y030876D01*
X028956Y030827D01*
X028940Y030779D01*
X028921Y030733D01*
X028898Y030689D01*
X028871Y030646D01*
X028841Y030606D01*
X028809Y030568D01*
X028773Y030533D01*
X028734Y030501D01*
X028693Y030472D01*
X028650Y030446D01*
X028605Y030424D01*
X028559Y030406D01*
X028511Y030391D01*
X028462Y030380D01*
X028413Y030373D01*
X028363Y030370D01*
X028312Y030371D01*
X028263Y030376D01*
X028213Y030385D01*
X028165Y030398D01*
X028118Y030414D01*
X028072Y030435D01*
X028028Y030459D01*
X027986Y030486D01*
X027946Y030516D01*
X027909Y030550D01*
X027875Y030587D01*
X027843Y030626D01*
X027815Y030667D01*
X027790Y030711D01*
X027769Y030756D01*
X027752Y030803D01*
X027738Y030851D01*
X027728Y030900D01*
X027722Y030950D01*
X027720Y031000D01*
X027720Y011500D02*
X027722Y011550D01*
X027728Y011600D01*
X027738Y011649D01*
X027752Y011697D01*
X027769Y011744D01*
X027790Y011789D01*
X027815Y011833D01*
X027843Y011874D01*
X027875Y011913D01*
X027909Y011950D01*
X027946Y011984D01*
X027986Y012014D01*
X028028Y012041D01*
X028072Y012065D01*
X028118Y012086D01*
X028165Y012102D01*
X028213Y012115D01*
X028263Y012124D01*
X028312Y012129D01*
X028363Y012130D01*
X028413Y012127D01*
X028462Y012120D01*
X028511Y012109D01*
X028559Y012094D01*
X028605Y012076D01*
X028650Y012054D01*
X028693Y012028D01*
X028734Y011999D01*
X028773Y011967D01*
X028809Y011932D01*
X028841Y011894D01*
X028871Y011854D01*
X028898Y011811D01*
X028921Y011767D01*
X028940Y011721D01*
X028956Y011673D01*
X028968Y011624D01*
X028976Y011575D01*
X028980Y011525D01*
X028980Y011475D01*
X028976Y011425D01*
X028968Y011376D01*
X028956Y011327D01*
X028940Y011279D01*
X028921Y011233D01*
X028898Y011189D01*
X028871Y011146D01*
X028841Y011106D01*
X028809Y011068D01*
X028773Y011033D01*
X028734Y011001D01*
X028693Y010972D01*
X028650Y010946D01*
X028605Y010924D01*
X028559Y010906D01*
X028511Y010891D01*
X028462Y010880D01*
X028413Y010873D01*
X028363Y010870D01*
X028312Y010871D01*
X028263Y010876D01*
X028213Y010885D01*
X028165Y010898D01*
X028118Y010914D01*
X028072Y010935D01*
X028028Y010959D01*
X027986Y010986D01*
X027946Y011016D01*
X027909Y011050D01*
X027875Y011087D01*
X027843Y011126D01*
X027815Y011167D01*
X027790Y011211D01*
X027769Y011256D01*
X027752Y011303D01*
X027738Y011351D01*
X027728Y011400D01*
X027722Y011450D01*
X027720Y011500D01*
D11*
X017110Y012500D02*
X016590Y012500D01*
X016590Y013500D02*
X017110Y013500D01*
X017110Y014500D02*
X016590Y014500D01*
X016590Y015500D02*
X017110Y015500D01*
X017110Y016500D02*
X016590Y016500D01*
X016590Y017500D02*
X017110Y017500D01*
X017110Y018500D02*
X016590Y018500D01*
X014110Y018500D02*
X013590Y018500D01*
X013590Y017500D02*
X014110Y017500D01*
X014110Y016500D02*
X013590Y016500D01*
X013590Y015500D02*
X014110Y015500D01*
X014110Y014500D02*
X013590Y014500D01*
X013590Y013500D02*
X014110Y013500D01*
X014110Y012500D02*
X013590Y012500D01*
D12*
X012350Y015500D03*
X012350Y018500D03*
X020350Y019000D03*
X023350Y019000D03*
X019850Y027500D03*
X019850Y028500D03*
D13*
X022488Y022492D03*
X024350Y022492D03*
X026189Y022496D03*
X026212Y013508D03*
X024350Y013508D03*
X022511Y013504D03*
X008212Y013508D03*
X006350Y013508D03*
X004511Y013504D03*
X004488Y022492D03*
X006350Y022492D03*
X008189Y022496D03*
D14*
X013400Y028500D03*
X017300Y028500D03*
D15*
X012350Y023500D03*
X012350Y022500D03*
D16*
X014720Y022000D02*
X015980Y022000D01*
X015980Y023750D02*
X014720Y023750D01*
X014720Y020250D02*
X015980Y020250D01*
D17*
X021366Y020000D03*
X023334Y020000D03*
X018350Y013484D03*
X018350Y011516D03*
X010350Y013516D03*
X010350Y015484D03*
X005334Y016500D03*
X003366Y016500D03*
X003334Y019000D03*
X001366Y019000D03*
M02*
