%
M48
M72
T01C0.0276
T02C0.0320
T03C0.0354
T04C0.0400
T05C0.0433
T06C0.0860
T07C0.1260
%
T01
X10350Y13516
X10350Y15484
X5334Y16500
X3366Y16500
X3334Y19000
X1366Y19000
X18350Y13484
X18350Y11516
X21366Y20000
X23334Y20000
T02
X16850Y18500
X16850Y17500
X16850Y16500
X16850Y15500
X16850Y14500
X16850Y13500
X16850Y12500
X13850Y12500
X13850Y13500
X13850Y14500
X13850Y15500
X13850Y16500
X13850Y17500
X13850Y18500
X12350Y22500
X12350Y23500
T03
X12350Y18500
X12350Y15500
X20350Y19000
X23350Y19000
T04
X19850Y27500
X19850Y28500
X17300Y28500
X13400Y28500
T05
X8189Y22496
X6350Y22492
X4488Y22492
X4511Y13504
X6350Y13508
X8212Y13508
X22511Y13504
X24350Y13508
X26212Y13508
X26189Y22496
X24350Y22492
X22488Y22492
T06
X15350Y22000
X15350Y23750
X15350Y20250
T07
X1350Y11500
X10850Y20000
X10850Y29750
X28350Y31000
X28350Y11500
M30
